<?xml version="1.0" encoding="utf-8"?>
<svg viewBox="177.272 94.48 211.427 211.427" xmlns="http://www.w3.org/2000/svg">
  <rect x="177.272" y="94.48" width="211.427" height="211.427" rx="15" ry="15" style="fill: rgb(66, 130, 201);"/>
  <path style="stroke-opacity: 0.3; fill: rgb(255, 255, 255);" d="M 349.332 161.038 C 349.332 187.808 338.245 199.85 327.155 213.502 C 316.065 227.154 306.537 237.813 301.9 241.742 C 300.934 241.703 300.018 241.666 299.147 241.631 C 326.265 203.759 350.441 179.314 343.182 143.657 C 347.395 150.485 349.332 156.953 349.332 161.038 Z M 291.565 241.34 C 312.488 193.963 340.224 147.31 316.985 121.174 C 316.673 120.924 316.333 120.621 315.969 120.272 C 321.748 122.794 326.702 125.981 330.886 129.491 C 330.988 129.745 331.094 130.003 331.202 130.267 C 343.628 160.526 318.567 201.056 296.694 241.533 C 294.78 241.457 293.097 241.392 291.565 241.34 Z M 284.926 241.192 C 291.709 191.059 301.603 145.351 290.327 115.042 C 290.141 114.893 289.96 114.741 289.783 114.585 C 293.28 114.705 296.605 115.037 299.761 115.552 C 299.815 115.724 299.869 115.898 299.925 116.074 C 309.631 146.757 298.531 198.079 289.034 241.263 C 287.581 241.224 286.242 241.2 284.926 241.192 Z M 276.708 241.335 C 266.945 198.718 252.591 141.422 265.479 117.145 C 265.479 117.145 265.484 116.99 265.48 116.725 C 268.287 116.124 271.191 115.638 274.187 115.278 C 266.073 131.628 272.655 196.839 280.131 241.232 C 279.057 241.256 277.93 241.29 276.708 241.335 Z M 270.409 241.612 C 246.606 203.142 218.509 161.794 235.485 129.709 C 238.718 127.332 242.326 125.156 246.276 123.239 C 226.623 149.769 254.133 199.519 274.17 241.437 C 273.013 241.487 271.768 241.545 270.409 241.612 Z M 262.643 242.011 C 262.643 242.011 243.437 221.771 232.565 207.018 C 221.693 192.265 216.665 180.402 216.665 161.391 C 216.665 155.593 218.462 149.726 221.831 144.197 C 214.575 177.69 240.441 205.52 267.861 241.74 C 266.275 241.821 264.546 241.911 262.643 242.011 Z"/>
  <path style="fill: rgb(255, 255, 255);" d="M 263.38 242.66 L 279.82 264.068 L 290.259 241.879 C 282.908 241.694 271.715 241.985 263.38 242.66 Z"/>
  <path style="fill: rgb(255, 255, 255);" d="M 262.749 241.139 L 265.173 243.581"/>
  <path style="fill: rgb(255, 255, 255);" d="M 289.451 242.414 L 290.459 240.26"/>
  <path style="fill: rgb(255, 255, 255);" d="M 277.201 268.14 L 277.201 277.973 L 279.017 279.437 L 284.859 279.437 L 286.795 277.486 L 286.795 268.152 L 277.201 268.14 Z"/>
  <path style="fill: none; stroke: rgb(255, 255, 255);" d="M 278.905 268.399 L 279.232 263.861 L 285.281 263.906 L 285.588 268.66"/>
  <path style="fill: none; stroke: rgb(255, 255, 255);" d="M 301.462 241.212 L 285.338 263.873"/>
  <path style="fill: rgb(255, 255, 255);" d="M 281.784 261.512 L 281.44 263.724 L 283.311 263.768 L 283.005 261.466 L 281.784 261.512 Z"/>
</svg>