<?xml version="1.0" encoding="utf-8"?>
<svg viewBox="177.272 94.48 211.427 211.427" xmlns="http://www.w3.org/2000/svg">
  <path style="stroke-opacity: 0.3; fill: rgb(255, 255, 255);" d="M 354.882 153.634 C 354.882 183.793 342.392 197.36 329.898 212.74 C 317.404 228.121 306.669 240.128 301.445 244.555 C 300.357 244.511 299.325 244.47 298.344 244.43 C 328.896 201.764 356.132 174.224 347.954 134.052 C 352.7 141.745 354.882 149.032 354.882 153.634 Z M 289.802 244.102 C 313.374 190.727 344.622 138.168 318.44 108.723 C 318.089 108.442 317.706 108.1 317.296 107.707 C 323.806 110.548 329.388 114.138 334.101 118.094 C 334.217 118.379 334.336 118.669 334.458 118.968 C 348.456 153.057 320.222 198.718 295.581 244.319 C 293.424 244.234 291.529 244.161 289.802 244.102 Z M 282.323 243.935 C 289.965 187.456 301.111 135.961 288.408 101.814 C 288.198 101.647 287.994 101.475 287.794 101.3 C 291.734 101.436 295.481 101.809 299.035 102.389 C 299.097 102.583 299.157 102.779 299.221 102.978 C 310.155 137.545 297.65 195.364 286.95 244.016 C 285.313 243.971 283.806 243.945 282.323 243.935 Z M 273.065 244.096 C 262.066 196.084 245.894 131.535 260.414 104.184 C 260.414 104.184 260.419 104.01 260.415 103.711 C 263.578 103.034 266.848 102.486 270.225 102.08 C 261.083 120.501 268.498 193.967 276.921 243.98 C 275.711 244.007 274.441 244.046 273.065 244.096 Z M 265.968 244.408 C 239.151 201.068 207.497 154.486 226.623 118.339 C 230.265 115.66 234.33 113.21 238.78 111.05 C 216.639 140.938 247.631 196.986 270.205 244.211 C 268.902 244.267 267.5 244.333 265.968 244.408 Z M 257.218 244.858 C 257.218 244.858 235.582 222.056 223.333 205.435 C 211.084 188.814 205.42 175.45 205.42 154.031 C 205.42 147.5 207.444 140.889 211.24 134.661 C 203.065 172.394 232.206 203.747 263.098 244.553 C 261.31 244.644 259.363 244.745 257.218 244.858 Z"/>
  <path style="fill: rgb(255, 255, 255);" d="M 258.049 245.589 L 276.57 269.707 L 288.331 244.71 C 280.05 244.501 267.439 244.829 258.049 245.589 Z"/>
  <path style="fill: rgb(255, 255, 255);" d="M 257.338 243.876 L 260.069 246.627"/>
  <path style="fill: rgb(255, 255, 255);" d="M 287.421 245.312 L 288.556 242.885"/>
  <path style="fill: rgb(255, 255, 255);" d="M 273.62 274.294 L 273.62 285.373 L 275.666 287.022 L 282.247 287.022 L 284.429 284.824 L 284.429 274.308 L 273.62 274.294 Z"/>
  <path style="fill: none; stroke: rgb(255, 255, 255);" d="M 275.539 274.587 L 275.908 269.474 L 282.723 269.525 L 283.068 274.881"/>
  <path style="fill: none; stroke: rgb(255, 255, 255);" d="M 300.952 243.957 L 282.786 269.488"/>
  <path style="fill: rgb(255, 255, 255);" d="M 278.783 266.828 L 278.395 269.32 L 280.504 269.37 L 280.158 266.776 L 278.783 266.828 Z"/>
</svg>