<?xml version="1.0" encoding="utf-8"?>
<svg viewBox="194.559 108.161 176.765 176.765" xmlns="http://www.w3.org/2000/svg">
  <rect x="194.559" y="108.161" width="176.765" height="176.765" rx="15" ry="15" style="fill: rgb(66, 130, 201);"/>
  <path style="stroke-opacity: 0.3; fill: rgb(255, 255, 255);" d="M 286.819 114.534 C 331.611 114.534 349.332 148.683 349.332 161.038 C 349.332 187.808 338.245 199.85 327.155 213.502 C 316.065 227.154 306.537 237.813 301.9 241.742 C 283.471 241.001 283.34 240.922 262.643 242.011 C 262.643 242.011 243.437 221.771 232.565 207.018 C 221.693 192.265 216.665 180.402 216.665 161.391 C 216.665 138.505 244.67 114.534 286.819 114.534 Z">
    <title>Balloon top</title>
  </path>
  <path style="fill: rgb(255, 255, 255);" d="M 263.38 242.66 L 279.82 264.068 L 290.259 241.879 C 282.908 241.694 271.715 241.985 263.38 242.66 Z"/>
  <path style="fill: rgb(255, 255, 255);" d="M 262.749 241.139 L 265.173 243.581"/>
  <path style="fill: rgb(255, 255, 255);" d="M 289.451 242.414 L 290.459 240.26"/>
  <path style="fill: rgb(255, 255, 255);" d="M 277.201 268.14 L 277.201 277.973 L 279.017 279.437 L 284.859 279.437 L 286.795 277.486 L 286.795 268.152 L 277.201 268.14 Z"/>
  <path style="fill: none; stroke: rgb(255, 255, 255);" d="M 278.905 268.399 L 279.232 263.861 L 285.281 263.906 L 285.588 268.66"/>
  <path style="fill: none; stroke: rgb(255, 255, 255);" d="M 301.462 241.212 L 285.338 263.873"/>
  <path style="fill: rgb(255, 255, 255);" d="M 281.784 261.512 L 281.44 263.724 L 283.311 263.768 L 283.005 261.466 L 281.784 261.512 Z"/>
</svg>